inDegrees=no
num_controls=7
num_derivatives=13
num_iterations=136
num_multipliers=7
num_parameters=0
num_slacks=7
num_states=26
objective=5.245962
objective_accelerations=0.467256
objective_balance=0.077872
objective_effort=0.415784
objective_height=4.202657
objective_ligament=0.082393
solver_duration=1600.457673
status=Solve_Succeeded
success=true
DataType=double
version=3
OpenSimVersion=4.4-2022-07-23-0e9fedc
endheader
time	/jointset/ground_pelvis/pelvis_tilt/value	/jointset/ground_pelvis/pelvis_tx/value	/jointset/ground_pelvis/pelvis_ty/value	/jointset/hip_l/hip_flexion_l/value	/jointset/hip_l/hip_adduction_l/value	/jointset/hip_l/hip_rotation_l/value	/jointset/back/lumbar_extension/value	/jointset/patellofemoral_l/patellar_flexion_l/value	/jointset/knee_l/knee_flexion_l/value	/jointset/knee_l/knee_adduction_l/value	/jointset/knee_l/knee_rotation_l/value	/jointset/ankle_l/ankle_angle_l/value	/jointset/subtalar_l/subtalar_angle_l/value	/jointset/ground_pelvis/pelvis_tilt/speed	/jointset/ground_pelvis/pelvis_tx/speed	/jointset/ground_pelvis/pelvis_ty/speed	/jointset/hip_l/hip_flexion_l/speed	/jointset/hip_l/hip_adduction_l/speed	/jointset/hip_l/hip_rotation_l/speed	/jointset/back/lumbar_extension/speed	/jointset/patellofemoral_l/patellar_flexion_l/speed	/jointset/knee_l/knee_flexion_l/speed	/jointset/knee_l/knee_adduction_l/speed	/jointset/knee_l/knee_rotation_l/speed	/jointset/ankle_l/ankle_angle_l/speed	/jointset/subtalar_l/subtalar_angle_l/speed	/forceset/tau_hip_flexion_l	/forceset/tau_hip_adduction_l	/forceset/tau_hip_rotation_l	/forceset/tau_knee_flexion_l	/forceset/tau_ankle_angle_l	/forceset/tau_subtalar_angle_l	/forceset/tau_lumbar_extension	lambda_cid13_p0	lambda_cid13_p1	lambda_cid13_p2	lambda_cid13_p3	lambda_cid13_p4	lambda_cid13_p5	lambda_cid14_p0	/jointset/ground_pelvis/pelvis_tilt/accel	/jointset/ground_pelvis/pelvis_tx/accel	/jointset/ground_pelvis/pelvis_ty/accel	/jointset/hip_l/hip_flexion_l/accel	/jointset/hip_l/hip_adduction_l/accel	/jointset/hip_l/hip_rotation_l/accel	/jointset/back/lumbar_extension/accel	/jointset/patellofemoral_l/patellar_flexion_l/accel	/jointset/knee_l/knee_flexion_l/accel	/jointset/knee_l/knee_adduction_l/accel	/jointset/knee_l/knee_rotation_l/accel	/jointset/ankle_l/ankle_angle_l/accel	/jointset/subtalar_l/subtalar_angle_l/accel	gamma_cid13_p0	gamma_cid13_p1	gamma_cid13_p2	gamma_cid13_p3	gamma_cid13_p4	gamma_cid13_p5	gamma_cid14_p0
0	-0.1601672752583645	0.05857457580013571	0.8979987391999049	0.3774920279260975	-0.2591371567060226	-0.2729676567302271	-0.0126506700172305	0.0322362312843109	0.03223623128433527	-0.1745328959112559	0.1745247126896756	-0.04231376238535053	-0.009261615612950341	0	0	0	0	0	0	0	0	0	0	0	0	0	0.1428016433923347	-0.07313592437565233	-0.05021455508937393	-0.2950255675829833	0.2928558438643685	-0.04410987752488293	-0.0881508320100856	51.4033739554759	3.711343925392655	6.367879868886829	-0.01616594834551461	-594.940703043363	-70.02593277425166	-39.07379677729682	-4.134429932300134	-2.09210076345258	-0.997395510333237	11.19822173185636	-1.002868057608525	2.436447614392669	-5.463408298966295	7.202435176925254	7.202435176922816	0.06342838014078969	0.03893854984751549	0.1754947666343548	-0.9872884161787274	-1.469283118868006e-08	6.445963935997985e-08	3.695182799607303e-08	6.025516009955597e-10	4.327041993611396e-08	1.973801361717465e-08	-5.189282828622826e-09
0.01	-0.1603674208098287	0.05847112291195766	0.8979499418583077	0.3780386882909991	-0.2591872404445295	-0.2728461236076494	-0.01292462911147562	0.03258815034332888	0.03258815034354625	-0.1745316371255985	0.1745242718679787	-0.04230682123131906	-0.009311330920005268	-0.03981006200498911	-0.02060911068204102	-0.009723240865702377	0.1088317308771599	-0.009973103015607948	0.02421079814371915	-0.05443432053918272	0.07009515672490534	0.07009515672489469	0.0002459606329610685	-9.232711060513856e-05	0.001381373609806428	-0.009900458079313907	0.1365350207186416	-0.08262270377112488	-0.04889298132840249	-0.2873411704985059	0.2805658976652767	-0.02988443530259565	-0.08313287118866158	47.99404217214554	-1.596416678234127	6.901792728113029	1.355413996429933	-595.7587854783163	-80.14737161665573	-39.08386873256973	-3.871441542901531	-2.033096054891835	-0.9543456027791543	10.65059375356178	-0.9879961799893892	2.399018165767878	-5.379819185886547	6.869758692047987	6.869758692048175	0.004323833531180763	-0.03394557698242637	0.1184293363538975	-0.9850482692764018	-2.954386880143271e-08	7.98872901874591e-08	6.101252554521302e-08	1.024170338413867e-08	-3.834223634407918e-08	3.034800847449842e-08	-9.74876799192647e-09
0.02	-0.1609590964229825	0.0581640229500983	0.8978050006624353	0.3796586549623027	-0.259335748164483	-0.2724853580533746	-0.01373220646200007	0.03363236152421431	0.03363236152421582	-0.1745280899471842	0.1745227823277551	-0.04228627220554974	-0.009458775560947328	-0.0783060123422519	-0.04072941473626286	-0.01922877085503233	0.2146612612709098	-0.0196847962893757	0.04784648634372572	-0.1067236512581284	0.1384584243208047	0.138458424320809	0.0004576784121339341	-0.0002097436398941843	0.002721574347616018	-0.01954586677741888	0.1302683980453077	-0.09210948316655257	-0.04757140756934991	-0.2796567734135112	0.2682759514662834	-0.01565899308021694	-0.07811491036701766	44.64649805062749	-6.914346406100651	7.436587386612444	2.661082222622916	-595.6027648177078	-90.1850275360852	-39.11365714214443	-3.871607598755701	-1.994339437887979	-0.953853335058837	10.59778163517393	-0.9505861092417324	2.321425625650146	-5.034410334919162	6.856057351123945	6.856057351126628	0.05657980938066272	0.03392066611084098	0.1672601922355094	-0.9362785399380306	-4.439490641418536e-08	9.531494101493835e-08	8.507322309435301e-08	1.988085516728178e-08	-1.199548926242723e-07	4.095800333182221e-08	-1.430825315523011e-08
0.03	-0.1619296889184941	0.05765849435478318	0.8975659301254115	0.3823221393353989	-0.2595798522538514	-0.2718913208937117	-0.01505158174139529	0.03535155712183852	0.03535155712179607	-0.1745223957911467	0.1745201825952792	-0.04225212441990942	-0.00970109965539143	-0.1156165870291865	-0.06025988669264436	-0.02856077917798768	0.3175140973885386	-0.02907862259935826	0.07084520158972582	-0.1567867031231897	0.2050791078071235	0.20507910780713	0.0006789283787186673	-0.0003001111117373169	0.004137908392365145	-0.0288546110987121	0.1247377299107214	-0.08640203684999859	-0.04681649241845727	-0.2748229765026085	0.2643562396247537	-0.01833116949115567	-0.07351057783141315	43.31644128909262	-5.638490578338835	7.36745477027152	2.696868066112654	-595.610885698666	-86.7494935548939	-39.16230011213444	-3.631403012244383	-1.914934412445496	-0.9192152960236147	10.05079923474876	-0.9251835210194473	2.271721300879451	-4.937547388451174	6.519838619062989	6.519838619061814	0.004584834897174348	-0.02901211009928567	0.1333067398642163	-0.9185455504709004	-5.738041602430157e-08	9.793923491811692e-08	1.036610247281172e-07	3.09853839867933e-08	-1.979731370626887e-07	4.16023065794244e-08	-1.791662690704203e-08
0.04	-0.1632675112825596	0.0569611543723197	0.8972342713621363	0.3859985049966131	-0.259916175132147	-0.2710707712162062	-0.01686064649466688	0.03772791250856603	0.03772791250856771	-0.1745145516863948	0.1745169798569509	-0.04220291594796629	-0.0100345858274976	-0.1517519860594574	-0.07909169216593663	-0.03774641610532211	0.4172375188938552	-0.03812855407506752	0.09314898990789587	-0.2046615460343814	0.269890382160522	0.2698903821605203	0.0008876681292141657	-0.0003303448342857495	0.005733711607897251	-0.03777828230988188	0.1192070617758247	-0.08069459053353883	-0.04606157726699828	-0.2699891795920579	0.2604365277830853	-0.02100334590222477	-0.06890624529592412	42.04314970741201	-4.371232251603405	7.298162091608296	2.666879739851311	-594.7390548121748	-83.23425748373479	-39.22883164732629	-3.636572467423679	-1.854606141269476	-0.9245790559347035	9.971898712711161	-0.881807142387882	2.182440240084076	-4.596768544145497	6.494175524539784	6.494175524540422	0.0540777661611802	0.04594741596990776	0.2031540263926232	-0.8592639179140116	-7.032746113951806e-08	1.002995420805883e-07	1.221359831471314e-07	4.212012676581758e-08	-2.759172699167385e-07	4.204113164950656e-08	-2.150539011428711e-08
0.05	-0.1649610632564857	0.05607874136722032	0.8968113011720721	0.3906573233012466	-0.2603411277953629	-0.2700305795183423	-0.01913740436521038	0.04074368385920764	0.04074368385924916	-0.1745044470956861	0.1745137842370941	-0.04213702749610969	-0.01045528487929134	-0.1867508623038026	-0.09729650841494869	-0.04683604137480571	0.5140261603276024	-0.04679621766462841	0.1147845185121506	-0.2503500989512046	0.3329619301076473	0.3329619301076609	0.001134968777305355	-0.0003117816489597284	0.007444669608460837	-0.04629656094543003	0.1124001378605757	-0.07856346480178848	-0.04496951468029584	-0.2635678095257438	0.2529274753142913	-0.01892729578880101	-0.06349939072125091	39.79320483539663	-4.896510248169255	7.402006808659573	3.394782550754036	-593.8918254772262	-83.20950986132539	-39.31201464428884	-3.400418342558939	-1.789250785230551	-0.8994729959533528	9.457339019076517	-0.8493933594406219	2.138366488649057	-4.503909297885591	6.16835507995697	6.168355079958997	0.0103383365255833	-0.02065663085480239	0.1551665848096114	-0.8383937266321243	-7.927125917075117e-08	1.113265873111427e-07	1.328885745307871e-07	5.02438400396294e-08	-3.25772862901565e-07	4.873565495499876e-08	-2.312821152138652e-08
0.06	-0.1669983786207578	0.05501711391592974	0.8962977709826141	0.396269026452337	-0.260850786572912	-0.2687771810708295	-0.02186084989139527	0.044381112819395	0.04438111281939899	-0.1744918130738823	0.1745106807688989	-0.04205400948466236	-0.01095922349549211	-0.2205046641329871	-0.114934581404176	-0.05585841598411313	0.6078144881761638	-0.05506977694222464	0.1357903398385269	-0.2939990771654871	0.3942219040610929	0.3942219040611217	0.001393554321042293	-0.0003119144903798613	0.00915962352587822	-0.05442619519128213	0.1055932139455641	-0.07643233907007782	-0.04387745209385702	-0.257146439459341	0.2454184228454828	-0.01685124567541555	-0.05809253614634825	37.59318469197101	-5.4282815499281	7.504320118793009	4.061908496933303	-592.2627345368037	-83.1106083515196	-39.41056505946757	-3.387557584392141	-1.74125748931195	-0.9111289238995007	9.371835995673756	-0.8029862799955462	2.056498784508315	-4.188853603637629	6.131860725803763	6.131860725804362	0.05633474528913284	0.04220821062080893	0.2039532097638828	-0.7815350399752629	-8.804649943002709e-08	1.227185478287743e-07	1.433160136182172e-07	5.824077312374806e-08	-3.744457805234769e-07	5.569357608092928e-08	-2.46682564316377e-08
0.07000000000000001	-0.1693675245645404	0.05378204334617938	0.8956942055846354	0.402804313372038	-0.2614411346986921	-0.267316972528492	-0.02501024725888708	0.04862249078295643	0.04862249078294624	-0.1744764267241402	0.1745077072050417	-0.04195355334778056	-0.01154238130498693	-0.2531278055048451	-0.1319715592553281	-0.06485150784632629	0.698739762257135	-0.06293132471442478	0.1561387885699303	-0.3355468500647885	0.4537504637602211	0.4537504637602669	0.001678901017440241	-0.0002787908525519479	0.01094558386839711	-0.06213492769751305	0.09890335786610735	-0.07361806483451805	-0.042936769606871	-0.2520058181310844	0.2401119407707223	-0.0159653919399179	-0.05273066876862786	36.04285336713124	-5.568908036585763	7.557981945589244	4.220380215425107	-590.8929692690864	-82.23638106462209	-39.52296335902709	-3.170189767691891	-1.668710192830195	-0.8930014317883611	8.877390422514301	-0.7674731327654849	2.007109999648358	-4.08770719357563	5.817874810796926	5.817874810799185	0.01394125834443363	-0.01555434263974984	0.1680097886108267	-0.7550112021194534	-9.357900186841649e-08	1.252010593149162e-07	1.5045993880008e-07	6.444403914792585e-08	-4.078817820168553e-07	5.75137783841621e-08	-2.572275881858745e-08
0.08	-0.1720570013928457	0.05237984454595642	0.8950007888451541	0.4102337564942032	-0.2621080451235775	-0.2656566610824	-0.02856511596746769	0.05345005858724827	0.05345005858725254	-0.1744583255820848	0.1745051811209943	-0.04183481913904991	-0.01220052020877892	-0.2845708410411397	-0.1483602274986982	-0.07382868428467385	0.7866457286663494	-0.07038223676396978	0.1758109205890134	-0.3750933453841217	0.51145987221253	0.5114598722125889	0.001936512774970294	-0.0002224185348696559	0.01281523789551233	-0.06942241405066328	0.09221350178661766	-0.0708037905989907	-0.04199608711966109	-0.2468651968029054	0.2348054586959278	-0.01507953820446231	-0.04736880139090606	34.53635937942438	-5.714609149111771	7.609482736856557	4.321889121280568	-588.8410448501824	-81.2945192412453	-39.64766385978949	-3.151536417280042	-1.611595567755032	-0.9079458391264028	8.76797446132219	-0.7208591354649782	1.921235442044175	-3.78859808764427	5.7680304764398	5.768030476439647	0.05078775751461727	0.04685794659180821	0.2206919466836362	-0.6972858093594592	-9.89022954151358e-08	1.271087676377362e-07	1.57392024375132e-07	7.053158471662357e-08	-4.403347566632317e-07	5.900251495689828e-08	-2.674593588145325e-08
